<?xml version="1.0" encoding="utf-8"?>
<!-- Generator: Adobe Illustrator 19.2.0, SVG Export Plug-In . SVG Version: 6.00 Build 0)  -->
<!DOCTYPE svg PUBLIC "-//W3C//DTD SVG 1.1//EN" "http://www.w3.org/Graphics/SVG/1.1/DTD/svg11.dtd">
<svg version="1.1" id="Layer_1" xmlns="http://www.w3.org/2000/svg" xmlns:xlink="http://www.w3.org/1999/xlink" x="0px" y="0px"
	 viewBox="0 0 198.2 143" style="enable-background:new 0 0 198.2 143;" xml:space="preserve">
<g>
	<path style="fill:#224536;" d="M135.9,92.8c0,0,19.1-8.9,16.2-2.7c-2.9,6.2-11.5,8.6-18.2,9.8C127.2,101,135.9,92.8,135.9,92.8z"/>
	<path style="fill:#224536;" d="M72.3,93.9c0,0-4.4-2.7-10.1-5.6c-5.6-3-12.6-2.2-11.9,1.7s13.2,10.2,27.8,11.3S72.3,93.9,72.3,93.9
		z"/>
	<g>
		<defs>
			<path id="SVGID_1_" d="M67,99.7c0,0,9.4-51.1,18-47.1s14.7,10.7,20,6.4s8.5-8.3,15.6,1.7c7.1,10,17.7,38.1,17.7,38.1
				S90.6,110.5,67,99.7z"/>
		</defs>
		<use xlink:href="#SVGID_1_"  style="overflow:visible;fill:#224535;"/>
		<clipPath id="SVGID_2_">
			<use xlink:href="#SVGID_1_"  style="overflow:visible;"/>
		</clipPath>
		<path style="clip-path:url(#SVGID_2_);fill:#A3B04D;" d="M67,81.7c0,0,22.7,9.8,46.7,6.4c24-3.4,27-2.8,27-2.8l4,20.4L58,109
			L67,81.7z"/>
	</g>
	<path style="fill:none;stroke:#224535;stroke-width:4;stroke-linecap:round;stroke-linejoin:round;stroke-miterlimit:10;" d="
		M152.2,90c0,7-22.3,12.6-49.9,12.6S52.3,97,52.3,90"/>
	<path style="fill:#366E3B;" d="M95.7,62c0,0,15.9,5.6,17.7-0.6c1.8-6.2-3.7-4-3.7-4S104,63,95.7,62z"/>
	<g>
		<path style="fill:#879140;" d="M74.5,86.4C70.9,90.4,72,98,72,98l9.6,1.7c-0.8,0.1,3.6-5.7,1.8-13.1L74.5,86.4z"/>
		<path style="fill:#A3B04D;" d="M72.1,85c-2.2,3.4-1.7,9.4-1.3,11.8c0.1,0.6,0.6,1.1,1.2,1.2l7.6,1.3c0.6,0.1,1.3-0.2,1.5-0.8
			c0.7-1.7,2.8-6.2,1.5-11.7c-0.1-0.6-0.6-1-1.2-1.1l-7.9-1.3C73,84.3,72.4,84.5,72.1,85z"/>
		<g>
			<path style="fill:#E0E3CC;" d="M79.9,85.8c0,0-0.2-14.3,4.7-19.3c0,0-7.9-12-18-0.6c0,0,9.4,11.3,7.8,19.9
				C74.4,85.7,76.4,87.2,79.9,85.8z"/>
			<g>
				<path style="fill:#759C8B;" d="M70,67.2c0,0,0.5,0.6,1,1.6c0.3,0.5,0.6,1.1,0.9,1.7c0.3,0.6,0.6,1.3,0.9,2
					c0.3,0.7,0.5,1.4,0.7,2.1c0.2,0.7,0.3,1.3,0.4,1.9c0.1,0.6,0.1,1,0.1,1.4c0,0.3,0,0.5,0,0.5s0-0.2-0.1-0.5
					c0-0.3-0.2-0.8-0.3-1.3c-0.1-0.5-0.3-1.2-0.5-1.8c-0.2-0.7-0.5-1.4-0.8-2.1c-0.6-1.4-1.2-2.8-1.7-3.8C70.3,67.9,70,67.2,70,67.2
					z"/>
			</g>
			<g>
				<path style="fill:#759C8B;" d="M80,68.4c-0.3,0.8-0.5,1.7-0.7,2.5c-0.2,0.8-0.4,1.7-0.5,2.6l-0.3,1.9l-0.2-1.9
					c-0.1-0.7-0.1-1.4-0.2-2.1c0-0.7,0-1.4,0.1-2.1c0.1,0.7,0.2,1.4,0.3,2.1c0.1,0.7,0.2,1.1,0.3,2.1h-0.5c0.1-1,0.3-1.8,0.6-2.6
					C79.2,70,79.5,69.2,80,68.4z"/>
			</g>
			<g>
				<g>
					<path style="fill:#759C8B;" d="M67.7,64.7L67.7,64.7z"/>
					<circle style="fill:#759C8B;" cx="70.5" cy="63.6" r="0.2"/>
					<circle style="fill:#759C8B;" cx="73.4" cy="62.8" r="0.3"/>
					<circle style="fill:#759C8B;" cx="76.4" cy="62.8" r="0.4"/>
					<circle style="fill:#759C8B;" cx="79.2" cy="63.6" r="0.4"/>
					<circle style="fill:#759C8B;" cx="81.4" cy="65.6" r="0.5"/>
					<circle style="fill:#759C8B;" cx="79.3" cy="66.7" r="0.5"/>
					<circle style="fill:#759C8B;" cx="76.4" cy="66" r="0.5"/>
					<circle style="fill:#759C8B;" cx="73.7" cy="64.6" r="0.5"/>
					<circle style="fill:#759C8B;" cx="76" cy="64.1" r="0.4"/>
					<circle style="fill:#759C8B;" cx="77.3" cy="65.6" r="0.3"/>
					<circle style="fill:#759C8B;" cx="74.4" cy="65" r="0.2"/>
					<circle style="fill:#759C8B;" cx="71.7" cy="64.6" r="0"/>
				</g>
			</g>
		</g>
	</g>
</g>
<path style="fill:#366E3B;" d="M53.8,88.6c0,0-0.5,6.2,13.6,8.7l0.9-4.3C68.3,92.9,55.5,84.4,53.8,88.6z"/>
<path style="opacity:0.12;fill:#366E3B;" d="M135.6,97.3l-8.7-19.9c3,12.7-4.1,20.7-5.5,22.4C131.4,98.3,135.6,97.3,135.6,97.3z"/>
</svg>
