<?xml version="1.0" encoding="utf-8"?>
<!-- Generator: Adobe Illustrator 19.2.0, SVG Export Plug-In . SVG Version: 6.00 Build 0)  -->
<!DOCTYPE svg PUBLIC "-//W3C//DTD SVG 1.1//EN" "http://www.w3.org/Graphics/SVG/1.1/DTD/svg11.dtd">
<svg version="1.1" id="Layer_1" xmlns="http://www.w3.org/2000/svg" xmlns:xlink="http://www.w3.org/1999/xlink" x="0px" y="0px"
	 viewBox="0 0 198.2 143" style="enable-background:new 0 0 198.2 143;" xml:space="preserve">
<g>
	<g>
		<g>
			<path id="SVGID_9_" style="fill:#56596A;" d="M131.8,79.8c0,4.7-1.8,6.2-3.8,10.2l0,0c-5,2.1-15.7,3.4-28.1,3.4
				S77.1,92.1,71.5,90c-2-4-3-5.5-3-10.3c0-0.6,0.1-1.2,0.1-1.7c0.9-16,14.9-28.8,31.8-28.8C117.5,49.3,131,62,132,78
				C132.1,78.6,131.8,79.2,131.8,79.8z"/>
		</g>
		<g>
			<defs>
				<path id="SVGID_1_" d="M131.8,79.8c0,4.7-1.8,6.2-3.8,10.2l0,0c-5,2.1-15.7,3.4-28.1,3.4S77.1,92.1,71.5,90c-2-4-3-5.5-3-10.3
					c0-0.6,0.1-1.2,0.1-1.7c0.9-16,14.9-28.8,31.8-28.8C117.5,49.3,131,62,132,78C132.1,78.6,131.8,79.2,131.8,79.8z"/>
			</defs>
			<clipPath id="SVGID_2_">
				<use xlink:href="#SVGID_1_"  style="overflow:visible;"/>
			</clipPath>
			<path style="clip-path:url(#SVGID_2_);fill:#35394D;" d="M67.2,71.5c0,0-0.8,4.9,6.3,6s27.1-28.9,27.1-28.9s-2.7,11-1.9,20.1
				c5.5,4.3,4.5,10.3,4.5,10.3c4.1,2.9,28.1,1.2,31.5-4.9l5.7,31.7l-78.3-8.2L59,70L67.2,71.5z"/>
		</g>
	</g>
	<g>
		<g>
			<path id="SVGID_11_" style="fill:#6E707F;" d="M133,88.4L133,88.4c-0.2,1-2,1.4-5,2.3l0,0c-5,2.1-15.7,3.6-27.9,3.6
				c-1.3,0-2.5,0-3.8-0.1c-6.5-0.2-12.4-0.7-17.1-1.6c-2.9-0.5-5.3-1.2-7.2-1.9c-2.5-0.9-3.9-2.1-3.9-3.3
				c-1.6-10.6,0.7-10.8,0.7-11.4c0,0.6,1,2.3,1.8,2.9c0.1,0.1,0.3,0.2,0.4,0.3c2,1.3,3.8,1.6,8.7,2.5c4.7,0.9,10.5,2,16.7,2.1
				c1.3,0,2.6,0.5,4,0.5h0.1c15.3,0,28.1-2.7,31.4-5.8c0-0.1,0.1-0.3,0.1-0.4c0.5-0.5,0.7-0.6,0.7-1.1C135.2,82.7,133,88.4,133,88.4
				z"/>
		</g>
		<g>
			<defs>
				<path id="SVGID_4_" d="M133,88.4L133,88.4c-0.2,1-2,1.4-5,2.3l0,0c-5,2.1-15.7,3.6-27.9,3.6c-1.3,0-2.5,0-3.8-0.1
					c-6.5-0.2-12.4-0.7-17.1-1.6c-2.9-0.5-5.3-1.2-7.2-1.9c-2.5-0.9-3.9-2.1-3.9-3.3c-1.6-10.6,0.7-10.8,0.7-11.4
					c0,0.6,1,2.3,1.8,2.9c0.1,0.1,0.3,0.2,0.4,0.3c2,1.3,3.8,1.6,8.7,2.5c4.7,0.9,10.5,2,16.7,2.1c1.3,0,2.6,0.5,4,0.5h0.1
					c15.3,0,28.1-2.7,31.4-5.8c0-0.1,0.1-0.3,0.1-0.4c0.5-0.5,0.7-0.6,0.7-1.1C135.2,82.7,133,88.4,133,88.4z"/>
			</defs>
			<clipPath id="SVGID_5_">
				<use xlink:href="#SVGID_4_"  style="overflow:visible;"/>
			</clipPath>
			<path style="clip-path:url(#SVGID_5_);fill:#676A79;" d="M89.6,92.3c0,0,0.3,5.8,1.3,6.3c0,0-10.1-1.3-11.9-4.7s-2.3-13.4,0-14.5
				L89.6,92.3z"/>
		</g>
		<g>
			<defs>
				<path id="SVGID_6_" d="M133,88.4L133,88.4c-0.2,1-2,1.4-5,2.3l0,0c-5,2.1-15.7,3.6-27.9,3.6c-1.3,0-2.5,0-3.8-0.1
					c-6.5-0.2-12.4-0.7-17.1-1.6c-2.9-0.5-5.3-1.2-7.2-1.9c-2.5-0.9-3.9-2.1-3.9-3.3c-1.6-10.6,0.7-10.8,0.7-11.4
					c0,0.6,1,2.3,1.8,2.9c0.1,0.1,0.3,0.2,0.4,0.3c2,1.3,3.8,1.6,8.7,2.5c4.7,0.9,10.5,2,16.7,2.1c1.3,0,2.6,0.5,4,0.5h0.1
					c15.3,0,28.1-2.7,31.4-5.8c0-0.1,0.1-0.3,0.1-0.4c0.5-0.5,0.7-0.6,0.7-1.1C135.2,82.7,133,88.4,133,88.4z"/>
			</defs>
			<clipPath id="SVGID_7_">
				<use xlink:href="#SVGID_6_"  style="overflow:visible;"/>
			</clipPath>
			<path style="clip-path:url(#SVGID_7_);fill:#404457;" d="M98.9,85.2c0,0-1.2,7.2,1.4,13.2H89l0.4-21L98.9,85.2z"/>
		</g>
	</g>
	<path style="fill:#727583;" d="M100.6,49.6c-0.2-0.5-1-0.4-1.5,0.8c-1.8,4.6-2.2,16.7-2.6,33.1c-0.1,2.8-0.1,5.8-0.1,8.8
		c0,1.4,0-0.1,0,1.2c0,0.3,0,0.5,0,0.8c-6.5-0.2-12.4-0.7-17.2-1.6c0-0.2,0-0.4,0-0.7c0-0.9,0,1.2,0,0.2c0-3.6,0.2-7.1,0.6-10.4
		c1.8-14.9,2.3-26,9.6-30.9l0,0C91,49.9,100.3,48.9,100.6,49.6z"/>
	<path style="fill:none;stroke:#000000;stroke-width:5.0421;stroke-miterlimit:10;" d="M68.6,70.6c0,0,4,1.2,5.6,2.3"/>
	<g>
		<path d="M100.4,72.1c0,0,0.5,0,1.4,0.1c0.9,0,2.1,0.1,3.5,0.1c1.5,0,3.1,0,5-0.1c1.8-0.1,3.7-0.3,5.6-0.5c1-0.1,1.9-0.3,2.8-0.4
			c0.9-0.2,1.8-0.3,2.7-0.5c0.9-0.2,1.7-0.4,2.5-0.6s1.5-0.4,2.2-0.6s1.3-0.4,1.8-0.6c0.5-0.2,1-0.4,1.4-0.5
			c0.8-0.3,1.2-0.5,1.2-0.5l2.3,5c0,0-0.5,0.2-1.3,0.6c-0.4,0.2-0.9,0.5-1.5,0.7s-1.3,0.5-2,0.8s-1.6,0.6-2.4,0.9
			c-0.9,0.3-1.8,0.6-2.7,0.9c-1,0.3-1.9,0.5-3,0.8c-1,0.2-2,0.5-3.1,0.7c-2.1,0.4-4.2,0.7-6.1,1c-2,0.2-3.8,0.4-5.4,0.5
			s-2.9,0.1-3.8,0.1s-1.4,0-1.4,0L100.4,72.1z"/>
	</g>
	
		<ellipse transform="matrix(0.9937 -0.1118 0.1118 0.9937 -9.1205 13.5438)" style="fill:#56596A;" cx="116.2" cy="88.1" rx="1.7" ry="1.7"/>
	
		<ellipse transform="matrix(0.9937 -0.1118 0.1118 0.9937 -8.6824 14.9651)" style="fill:#56596A;" cx="129.1" cy="84.9" rx="1.4" ry="1.9"/>
	<path style="fill:#8E909C;" d="M73.6,84.1c0.1,0.9-0.4,1.8-1,1.9s-1.2-0.6-1.3-1.5c-0.1-0.9,0.4-1.8,1-1.9
		C73,82.5,73.5,83.2,73.6,84.1z"/>
	<path style="fill:#8E909C;" d="M130,85c0.1,1-0.4,2-1.1,2.1s-1.2-0.6-1.3-1.7c-0.1-1,0.4-2,1.1-2.1C129.4,83.2,130,83.9,130,85z"/>
	<g>
		<circle style="fill:#2B2E44;" cx="89.4" cy="77.1" r="12.2"/>
		<g>
			<g>
				<circle id="SVGID_13_" style="fill:#1D1F30;" cx="85.2" cy="77.1" r="13.9"/>
			</g>
			<g>
				<defs>
					<circle id="SVGID_8_" cx="85.2" cy="77.1" r="13.9"/>
				</defs>
				<clipPath id="SVGID_10_">
					<use xlink:href="#SVGID_8_"  style="overflow:visible;"/>
				</clipPath>
				<ellipse style="clip-path:url(#SVGID_10_);fill:#91CAE2;" cx="86.7" cy="77.1" rx="10.6" ry="12"/>
			</g>
		</g>
		<path style="opacity:0.2;fill:#FFFFFF;stroke:#262A40;stroke-miterlimit:10;enable-background:new    ;" d="M77.6,72.4
			c0,0-0.8,10,6.9,14.4"/>
		<path style="opacity:0.2;fill:#FFFFFF;stroke:#262A40;stroke-miterlimit:10;enable-background:new    ;" d="M82.5,66.8
			c0,0-3.1,14.1,9.2,19.4"/>
		<path style="opacity:0.2;fill:#FFFFFF;stroke:#262A40;stroke-miterlimit:10;enable-background:new    ;" d="M88.3,65.9
			c0,0-0.6,11.1,7.5,16.5"/>
		<path style="opacity:0.2;fill:#FFFFFF;stroke:#262A40;stroke-miterlimit:10;enable-background:new    ;" d="M78.4,81.4
			c0,0,1.9-8.4,8.2-14.2"/>
		<path style="opacity:0.2;fill:#FFFFFF;stroke:#262A40;stroke-miterlimit:10;enable-background:new    ;" d="M84.8,86.2
			c0,0,1.9-8.4,8.2-14.2"/>
	</g>
	
		<line style="opacity:0.5;fill:none;stroke:#35394D;stroke-miterlimit:10;enable-background:new    ;" x1="127.7" y1="86.2" x2="130" y2="84.1"/>
	
		<ellipse transform="matrix(0.9937 -0.1118 0.1118 0.9937 -9.1258 13.4544)" style="fill:#8E909C;" cx="115.4" cy="88.1" rx="1.7" ry="1.7"/>
	
		<line style="opacity:0.5;fill:none;stroke:#35394D;stroke-miterlimit:10;enable-background:new    ;" x1="114.2" y1="89.3" x2="116.6" y2="86.9"/>
</g>
<g>
	<path style="fill:#35394D;" d="M113.5,58.6L128.7,44l2.7,3.9L123,65.9c0,0-1.5,0.9-3.6,0.3C119.4,63.9,114.9,61,113.5,58.6z"/>
	<g>
		<defs>
			<path id="SVGID_3_" d="M110.5,57.6L125.7,43l2.7,3.9l-8.9,19.4C119.4,66.3,117.7,62.5,110.5,57.6z"/>
		</defs>
		<use xlink:href="#SVGID_3_"  style="overflow:visible;fill:#565969;"/>
		<clipPath id="SVGID_12_">
			<use xlink:href="#SVGID_3_"  style="overflow:visible;"/>
		</clipPath>
		<path style="clip-path:url(#SVGID_12_);fill:#66727D;" d="M126.1,42.8l-13.5,14.8c0,0,5.8,3.7,7.2,7.9L114.9,76L99.3,55.6
			l24.3-18.1L126.1,42.8z"/>
	</g>
	<path style="fill:#35394D;" d="M135.6,33.9c5.4,2.8,8.1,9.1,6.1,14.1s-8,6.8-13.4,4c-5.4-2.8-8.1-9.1-6.1-14.1
		C124.2,32.9,130.2,31.1,135.6,33.9z"/>
	<path style="fill:#565969;" d="M128.1,32.5c4.2-0.6,10,3,12.9,8.1c3,5,2,9.6-2.2,10.2c-4.2,0.6-10-3-12.9-8.1
		C122.9,37.6,123.9,33.1,128.1,32.5z"/>
	<g>
		<path style="fill:#727583;" d="M133.5,38.5l12.1-8.2c0.2-0.2,0.5-0.1,0.7,0.1c0.1,0.2,0.1,0.4,0,0.6l-9.1,11.5
			c-0.9,1.2-2.7,1.4-3.9,0.4c-1.2-0.9-1.4-2.7-0.4-3.9C133,38.9,133.2,38.7,133.5,38.5z"/>
	</g>
</g>
</svg>
