<?xml version="1.0" encoding="utf-8"?>
<!-- Generator: Adobe Illustrator 19.2.0, SVG Export Plug-In . SVG Version: 6.00 Build 0)  -->
<!DOCTYPE svg PUBLIC "-//W3C//DTD SVG 1.1//EN" "http://www.w3.org/Graphics/SVG/1.1/DTD/svg11.dtd">
<svg version="1.1" id="Layer_1" xmlns="http://www.w3.org/2000/svg" xmlns:xlink="http://www.w3.org/1999/xlink" x="0px" y="0px"
	 viewBox="0 0 198.2 143" style="enable-background:new 0 0 198.2 143;" xml:space="preserve">
<path style="fill:none;stroke:#262A40;stroke-miterlimit:10;" d="M51.6,53.3"/>
<g>
	<g>
		<defs>
			<path id="SVGID_5_" d="M134.1,72c-0.1-1.2-0.2-2.4-0.4-3.5c12,4.7,19.4,10.9,18.6,16.8c-1,7-13.2,11.7-30.1,12.6
				c-6.6,0.3-13.8,0.1-21.4-0.8c-10.1-1.2-19.3-3.4-26.9-6.2C61.2,86.1,53.2,79.6,54,73.5c0.1-1,0.5-1.9,1-2.8
				c0,0.4-0.1,0.9-0.1,1.3"/>
		</defs>
		<use xlink:href="#SVGID_5_"  style="overflow:visible;fill:#3C3F53;"/>
		<clipPath id="SVGID_1_">
			<use xlink:href="#SVGID_5_"  style="overflow:visible;"/>
		</clipPath>
		<path style="clip-path:url(#SVGID_1_);fill:#262A40;" d="M60.5,82.4c0,0,37.6,22.9,77.5,18.4s-8.3-18.4-8.3-18.4H60.5z"/>
	</g>
	<path style="fill:#262A40;" d="M73.5,87.2c6.1,1.4,13.3,2.2,21,2.2c11.8,0,22.4-1.9,29.7-4.8c5-2,8.5-4.5,9.9-7.3"/>
	<g>
		<defs>
			<path id="SVGID_7_" d="M132.1,62.3c1.8,5.5,4.2,14-0.8,18.2c-5.4,4.6-13.5,6.4-20.3,7.6c-15.5,2.6-34.8,2.5-49.1-4.8
				c-2.2-1.1-4.8-2.6-6.2-4.7c-1.7-2.7-0.9-7.1-0.4-10.1c1-6.3,3.5-12.3,7.3-17.4c4.2-5.6,9.8-10.1,16.3-12.9
				c3.5-1.5,7.2-2.5,10.9-2.9c0,0,15.8-1.8,26.9,6.8S132.1,62.3,132.1,62.3z"/>
		</defs>
		<use xlink:href="#SVGID_7_"  style="overflow:visible;fill:#0071BC;"/>
		<clipPath id="SVGID_2_">
			<use xlink:href="#SVGID_7_"  style="overflow:visible;"/>
		</clipPath>
		<path style="clip-path:url(#SVGID_2_);fill:#2B578F;" d="M130.2,76c0,15.5-8.6,31.1-23.4,37c-14.1,5.6-29.7,0.1-38.6-11.8
			c-9.7-13-10.8-31.4-3-45.6c7.1-13,21.6-21.2,36.5-18.1C119.2,41.1,130.2,58.7,130.2,76z"/>
	</g>
	<path style="fill:none;stroke:#898BC4;stroke-miterlimit:10;stroke-dasharray:4,2;" d="M73.5,87.2c-0.2-2.3-0.3-4.7-0.3-7.1
		c0-6.5,0.8-12.7,2.2-18.3c0,0,0,0.1,0,0c0,0,0,0,0,0c0,0,0,0.1,0,0.1c4-15.4,12.8-23.9,23-23.9h2.1c0.9,0,5.8,2,6.6,2.4l0-0.1
		c0.1,0,0.2,0.3,0.4,0.3l0.3,0.4c0,0,0,0,0,0c10,5,12.3,14.2,14.6,23.4c0,0.1,0,0,0,0.1c0.1,0.3,0.1,0.4,0.2,0.7c0,0,0,0,0,0.1
		c0.1,0.4,0.2,0.8,0.2,1.2c0,0.2,0.1,0.3,0.1,0.5c0,0.1,0,0.2,0,0.3c0.1,0.4,0.1,0.7,0.2,1.1c0,0.3,0.1,0.6,0.1,0.9c0,0,0,0,0,0
		c0.1,0.5,0.1,0.9,0.2,1.4c0.1,0.6,0.1,1.2,0.2,1.9c0.2,2.5,0.4,5.1,0.4,7.7c0,1.5,0,3-0.1,4.5"/>
	<ellipse style="fill:#262A40;" cx="96.5" cy="38.3" rx="4.3" ry="1.6"/>
</g>
</svg>
