<?xml version="1.0" encoding="utf-8"?>
<!-- Generator: Adobe Illustrator 19.2.0, SVG Export Plug-In . SVG Version: 6.00 Build 0)  -->
<!DOCTYPE svg PUBLIC "-//W3C//DTD SVG 1.1//EN" "http://www.w3.org/Graphics/SVG/1.1/DTD/svg11.dtd">
<svg version="1.1" id="Layer_1" xmlns="http://www.w3.org/2000/svg" xmlns:xlink="http://www.w3.org/1999/xlink" x="0px" y="0px"
	 viewBox="0 0 198.2 143" style="enable-background:new 0 0 198.2 143;" xml:space="preserve">
<g>
	<g>
		<path style="fill:#C7B299;" d="M137.4,82.3c0,5.1-16.5,11.6-36.9,11.6s-36.9-6.5-36.9-11.6c0-8,16.5-9.7,36.9-9.7
			S137.4,74.7,137.4,82.3z"/>
		<path style="fill:#56596A;" d="M117.5,84v0.5h-0.1C117.5,84.3,117.5,84.1,117.5,84z"/>
	</g>
	<g>
		<g>
			<path id="SVGID_4_" style="fill:#736357;" d="M127.8,74.1c0,1.2-0.1,2.3-0.3,3.4c-6.1,4.7-15.9,7.8-27,7.8s-20.9-3.1-27-7.8
				c-0.2-1.1-0.3-2.2-0.3-3.4c0-11.8,12.2-21.4,27.3-21.4S127.8,62.3,127.8,74.1z"/>
		</g>
		<g>
			<defs>
				<path id="SVGID_1_" d="M127.8,74.1c0,1.2-0.1,2.3-0.3,3.4c-6.1,4.7-15.9,7.8-27,7.8s-20.9-3.1-27-7.8c-0.2-1.1-0.3-2.2-0.3-3.4
					c0-11.8,12.2-21.4,27.3-21.4S127.8,62.3,127.8,74.1z"/>
			</defs>
			<clipPath id="SVGID_2_">
				<use xlink:href="#SVGID_1_"  style="overflow:visible;"/>
			</clipPath>
			<path style="clip-path:url(#SVGID_2_);fill:#C7B299;" d="M133,65c0,4.9-14.5,11.9-32.4,11.9s-32.4-7-32.4-11.9
				s14.5-14.9,32.4-14.9S133,60.1,133,65z"/>
		</g>
	</g>
</g>
<linearGradient id="SVGID_3_" gradientUnits="userSpaceOnUse" x1="2.2012" y1="77.8195" x2="29.2108" y2="71.3057" gradientTransform="matrix(1 0 0 -1 70 144)">
	<stop  offset="0" style="stop-color:#233036"/>
	<stop  offset="0.5338" style="stop-color:#293740;stop-opacity:0.4662"/>
	<stop  offset="1" style="stop-color:#313F4D;stop-opacity:0"/>
</linearGradient>
<path style="opacity:0.5;fill:url(#SVGID_3_);" d="M105.3,52.7c0,0-26.1-0.8-24.9,26.3c0,0-13.1,2.5-10.3,6.2
	c2.8,3.7,23.1,7.3,26,7.5L105.3,52.7z"/>
</svg>
