<?xml version="1.0" encoding="utf-8"?>
<!-- Generator: Adobe Illustrator 19.2.0, SVG Export Plug-In . SVG Version: 6.00 Build 0)  -->
<!DOCTYPE svg PUBLIC "-//W3C//DTD SVG 1.1//EN" "http://www.w3.org/Graphics/SVG/1.1/DTD/svg11.dtd">
<svg version="1.1" id="Layer_1" xmlns="http://www.w3.org/2000/svg" xmlns:xlink="http://www.w3.org/1999/xlink" x="0px" y="0px"
	 viewBox="0 0 198.2 143" style="enable-background:new 0 0 198.2 143;" xml:space="preserve">
<g>
	<path style="fill:#56596A;" d="M151.9,74.6c1.1,6.7-9.1,14-22.8,16.2c-0.7,0.1-1.3,0.1-2,0.3c-5.3,1.2-17.6,1.1-28.5,1.5
		c-5.6,0.2-11.9,0-18.7-0.7c-19.5-2-34.4-11.6-33.4-21.5c1-9.9,17.6-16.3,37.1-14.3c6.7,0.7,12.9,2.3,18.1,4.5
		c7.7,3.3,13.2,7.9,21.4,6.2c0.7-0.1,1.3-0.3,2-0.4C138.9,64.2,150.9,67.9,151.9,74.6z"/>
	<path style="fill:#262A40;" d="M108.8,69.9c0,0-5.9-16.4,5-24c0,0,3.1-4,6.3,3c0,0-10.3,6.7-6.4,21C113.6,69.9,113,71,108.8,69.9z"
		/>
	<g>
		<path style="fill:#797B88;" d="M99.6,75.2c0,0,0.1,0.1,0.3,0.1c0.2,0.1,0.6,0.2,1.1,0.3c0.5,0.1,1.1,0.2,1.8,0.2
			c0.7,0,1.5,0,2.3,0c0.9-0.1,1.8-0.2,2.8-0.3c1-0.2,2-0.4,3-0.7c1.1-0.3,2.1-0.6,3.2-0.9c1.1-0.4,2.2-0.8,3.3-1.2
			c4.4-1.6,8.7-3.3,12.1-4.5c1.7-0.6,3.1-1,4.1-1.2c1-0.2,1.6-0.4,1.6-0.4c0.5-0.1,1,0.2,1.1,0.7c0.1,0.5-0.2,1-0.7,1.1c0,0,0,0,0,0
			l0,0c0,0-0.6,0.1-1.6,0.3c-1,0.2-2.4,0.6-4,1.1c-3.3,1.1-7.7,2.7-12.2,4.2c-1.1,0.4-2.2,0.8-3.3,1.1c-1.1,0.3-2.2,0.7-3.3,0.9
			c-1.1,0.3-2.1,0.5-3.2,0.6c-1,0.2-2,0.2-2.9,0.3c-0.9,0-1.7,0-2.5,0c-0.7,0-1.4-0.1-1.9-0.2c-0.5-0.1-0.9-0.2-1.2-0.3
			c-0.3-0.1-0.5-0.2-0.4-0.2c-0.3-0.1-0.4-0.4-0.2-0.7C99,75.2,99.3,75.1,99.6,75.2z"/>
	</g>
</g>
</svg>
