<?xml version="1.0" encoding="utf-8"?>
<!-- Generator: Adobe Illustrator 19.2.0, SVG Export Plug-In . SVG Version: 6.00 Build 0)  -->
<!DOCTYPE svg PUBLIC "-//W3C//DTD SVG 1.1//EN" "http://www.w3.org/Graphics/SVG/1.1/DTD/svg11.dtd">
<svg version="1.1" id="Layer_1" xmlns="http://www.w3.org/2000/svg" xmlns:xlink="http://www.w3.org/1999/xlink" x="0px" y="0px"
	 viewBox="0 0 198.2 143" style="enable-background:new 0 0 198.2 143;" xml:space="preserve">
<g>
	<g>
		<defs>
			<path id="SVGID_3_" d="M190.2,52c0,13.7-40.3,43-89.9,43S10.3,65.8,10.3,52s40.3,7.7,89.9,7.7C153.3,59.7,190.2,45,190.2,52z"/>
		</defs>
		<use xlink:href="#SVGID_3_"  style="overflow:visible;fill:#E6CDB1;"/>
		<clipPath id="SVGID_1_">
			<use xlink:href="#SVGID_3_"  style="overflow:visible;"/>
		</clipPath>
		<path style="clip-path:url(#SVGID_1_);fill:#CFB89F;" d="M78.3,72.5c-1.8-0.5,3.7,10,29,15.2c26.2,5.4,54.5-2.8,54.5-2.8l4.4-5
			c0,0-31-3.9-40.2-8.7L78.3,72.5z"/>
	</g>
	<path style="fill:#CFB89F;" d="M126.3,71.2c0,3-11,5.5-24.8,5.5c-13.7,0-24.8-1.8-24.8-4.9c0,0,0.1,0.6,0.1,0.6h-0.2
		c0,0,4.6-15.1,6.4-21.1c1.7-6,2.9-21.1,5.7-23.7l25.1-3.8c0,0,3.5,10.7,5.2,18.1c2.4,10.3,6.3,25.6,7.2,28.7
		c0.1,0.3-0.1,0.5-0.1,0.5v0C126,71.2,126.3,71.2,126.3,71.2z"/>
	<path style="fill:#E6CDB1;" d="M113.8,23.7c0.1,1.8-7.7,4.7-13.8,5.5c-6.1,0.7-11.2-0.1-11.4-1.8s4.5-3.8,10.6-4.5
		S113.7,21.9,113.8,23.7z"/>
	<path style="fill:none;stroke:#E3DED1;stroke-width:5;stroke-miterlimit:10;" d="M77.5,68.5c0,0,4.3,1.9,10.3,2.7
		c10.8,1.5,23.1,0.5,30.9-1.1c2.7-0.6,4.8-1.4,6.3-1.8"/>
</g>
</svg>
