<?xml version="1.0" encoding="utf-8"?>
<!-- Generator: Adobe Illustrator 19.2.0, SVG Export Plug-In . SVG Version: 6.00 Build 0)  -->
<!DOCTYPE svg PUBLIC "-//W3C//DTD SVG 1.1//EN" "http://www.w3.org/Graphics/SVG/1.1/DTD/svg11.dtd">
<svg version="1.1" id="Layer_1" xmlns="http://www.w3.org/2000/svg" xmlns:xlink="http://www.w3.org/1999/xlink" x="0px" y="0px"
	 viewBox="0 0 198.2 143" style="enable-background:new 0 0 198.2 143;" xml:space="preserve">
<g>
	<g>
		<defs>
			<path id="SVGID_3_" d="M76.6,96.7l22.3-64.4c0.9-2.6,4.6-2.7,5.6-0.1l24.9,64.2C129.4,96.4,116.5,113.3,76.6,96.7z"/>
		</defs>
		<use xlink:href="#SVGID_3_"  style="overflow:visible;fill:#BA3D66;"/>
		<clipPath id="SVGID_1_">
			<use xlink:href="#SVGID_3_"  style="overflow:visible;"/>
		</clipPath>
		<circle style="clip-path:url(#SVGID_1_);fill:#FBB03B;" cx="76.6" cy="94.2" r="8.9"/>
		<circle style="clip-path:url(#SVGID_1_);fill:#FBB03B;" cx="100.4" cy="79.9" r="8.9"/>
		<circle style="clip-path:url(#SVGID_1_);fill:#FBB03B;" cx="116.5" cy="55.5" r="8.9"/>
		<circle style="clip-path:url(#SVGID_1_);fill:#FBB03B;" cx="90.6" cy="42.4" r="8.9"/>
		<circle style="clip-path:url(#SVGID_1_);fill:#FBB03B;" cx="116.5" cy="104.4" r="8.9"/>
	</g>
	<g>
		<g>
			<line style="fill:none;stroke:#ADBEDB;stroke-miterlimit:10;" x1="68.3" y1="35.6" x2="68.4" y2="39.6"/>
			<line style="fill:none;stroke:#ADBEDB;stroke-miterlimit:10;" x1="64.1" y1="37" x2="66.3" y2="40.3"/>
			<line style="fill:none;stroke:#ADBEDB;stroke-miterlimit:10;" x1="61" y1="40" x2="64.3" y2="42.2"/>
			<line style="fill:none;stroke:#ADBEDB;stroke-miterlimit:10;" x1="59.1" y1="43.9" x2="62.9" y2="45"/>
			<line style="fill:none;stroke:#ADBEDB;stroke-miterlimit:10;" x1="58.7" y1="48.2" x2="62.6" y2="47.7"/>
			<line style="fill:none;stroke:#ADBEDB;stroke-miterlimit:10;" x1="60.4" y1="52.1" x2="63.5" y2="49.8"/>
			<line style="fill:none;stroke:#ADBEDB;stroke-miterlimit:10;" x1="63.5" y1="54.8" x2="65.5" y2="51.5"/>
			<line style="fill:none;stroke:#ADBEDB;stroke-miterlimit:10;" x1="67.6" y1="56.4" x2="68.4" y2="52.7"/>
			<line style="fill:none;stroke:#ADBEDB;stroke-miterlimit:10;" x1="72.4" y1="56.6" x2="71.9" y2="52.9"/>
			<line style="fill:none;stroke:#ADBEDB;stroke-miterlimit:10;" x1="76.4" y1="55" x2="74.3" y2="51.9"/>
			<line style="fill:none;stroke:#ADBEDB;stroke-miterlimit:10;" x1="79" y1="51.9" x2="75.6" y2="50.2"/>
			<line style="fill:none;stroke:#ADBEDB;stroke-miterlimit:10;" x1="79.9" y1="48.1" x2="76.2" y2="47.8"/>
			<line style="fill:none;stroke:#ADBEDB;stroke-miterlimit:10;" x1="79.4" y1="44" x2="75.8" y2="45"/>
			<line style="fill:none;stroke:#ADBEDB;stroke-miterlimit:10;" x1="77.6" y1="40.2" x2="74.5" y2="42.1"/>
			<line style="fill:none;stroke:#ADBEDB;stroke-miterlimit:10;" x1="74.5" y1="36.9" x2="72.1" y2="39.7"/>
		</g>
	</g>
	<path style="fill:none;stroke:#000000;stroke-miterlimit:10;" d="M101.8,32.7c0,0-1-6.1-6.4-3.6S85,45.5,76.9,45.5"/>
</g>
</svg>
